<svg version="1.1" xmlns="http://www.w3.org/2000/svg" width="500" height="350"><defs><clipPath id="NzCNCkmUubxM"><path fill="none" stroke="none" d="M 53.5 35.5 L 470.5 35.5 L 470.5 294.5 L 53.5 294.5 L 53.5 35.5"/></clipPath><clipPath id="bnZFTOOxWTFw"><path fill="none" stroke="none" d="M 53.5 35.5 L 470.5 35.5 L 470.5 294.5 L 53.5 294.5 L 53.5 35.5"/></clipPath><clipPath id="TkVHnLXwibhA"><path fill="none" stroke="none" d="M 53.5 35.5 L 470.5 35.5 L 470.5 294.5 L 53.5 294.5 L 53.5 35.5"/></clipPath><clipPath id="eNWwcBWekfLU"><path fill="none" stroke="none" d="M 53.5 35.5 L 470.5 35.5 L 470.5 294.5 L 53.5 294.5 L 53.5 35.5"/></clipPath><clipPath id="qiEdQWXNKFnI"><path fill="none" stroke="none" d="M 53.5 35.5 L 470.5 35.5 L 470.5 294.5 L 53.5 294.5 L 53.5 35.5"/></clipPath><clipPath id="FectKtuUaOyu"><path fill="none" stroke="none" d="M 53.5 35.5 L 470.5 35.5 L 470.5 294.5 L 53.5 294.5 L 53.5 35.5"/></clipPath><clipPath id="fSaJzmZNxJHz"><path fill="none" stroke="none" d="M 53.5 35.5 L 470.5 35.5 L 470.5 294.5 L 53.5 294.5 L 53.5 35.5"/></clipPath><clipPath id="JTGDsglCDMyb"><path fill="none" stroke="none" d="M 53.5 35.5 L 470.5 35.5 L 470.5 294.5 L 53.5 294.5 L 53.5 35.5"/></clipPath><clipPath id="FiTtXEpfaPmb"><path fill="none" stroke="none" d="M 53.5 35.5 L 470.5 35.5 L 470.5 294.5 L 53.5 294.5 L 53.5 35.5"/></clipPath><clipPath id="MfTGXGXagegX"><path fill="none" stroke="none" d="M 53.5 35.5 L 470.5 35.5 L 470.5 294.5 L 53.5 294.5 L 53.5 35.5"/></clipPath><clipPath id="eQBwoHxFrAoe"><path fill="none" stroke="none" d="M 53.5 35.5 L 470.5 35.5 L 470.5 294.5 L 53.5 294.5 L 53.5 35.5"/></clipPath><clipPath id="imzSXmQiTgQX"><path fill="none" stroke="none" d="M 53.5 35.5 L 470.5 35.5 L 470.5 294.5 L 53.5 294.5 L 53.5 35.5"/></clipPath><clipPath id="ucaUOsWeWFLJ"><path fill="none" stroke="none" d="M 53.5 35.5 L 470.5 35.5 L 470.5 294.5 L 53.5 294.5 L 53.5 35.5"/></clipPath><clipPath id="xdveiSOzmGyh"><path fill="none" stroke="none" d="M 53.5 35.5 L 470.5 35.5 L 470.5 294.5 L 53.5 294.5 L 53.5 35.5"/></clipPath></defs><path fill="rgb(255,255,255)" stroke="none" paint-order="stroke" d="M 0.5 0.5 L 500.5 0.5 L 500.5 350.5 L 0.5 350.5 L 0.5 0.5" fill-opacity="1"/><rect fill="#FFFFFF" stroke="none" x="53" y="35" width="417" height="259" transform="matrix(1, 0, 0, 1, 0.5, 0.5)"/><path fill="rgb(255,255,255)" stroke="none" paint-order="stroke" d="M 53.5 35.5 L 470.5 35.5 L 470.5 294.5 L 53.5 294.5 L 53.5 35.5" fill-opacity="1"/><path fill="none" stroke="rgb(229,229,229)" paint-order="fill" d="M 53.5 35.5 L 470.5 35.5 L 470.5 294.5 L 53.5 294.5 L 53.5 35.5" stroke-opacity="1" stroke-linejoin="bevel" stroke-miterlimit="10" stroke-dasharray=""/><path fill="none" stroke="rgb(229,229,229)" paint-order="fill" d="M 64.5 294.5 L 64.5 35.5 M 122.5 294.5 L 122.5 35.5 M 180.5 294.5 L 180.5 35.5 M 237.5 294.5 L 237.5 35.5 M 295.5 294.5 L 295.5 35.5 M 353.5 294.5 L 353.5 35.5 M 410.5 294.5 L 410.5 35.5 M 468.5 294.5 L 468.5 35.5" stroke-opacity="1" stroke-linejoin="bevel" stroke-miterlimit="10" stroke-dasharray="" clip-path="url(#NzCNCkmUubxM)"/><path fill="none" stroke="rgb(229,229,229)" paint-order="fill" d="M 53.5 285.5 L 470.5 285.5 M 53.5 247.5 L 470.5 247.5 M 53.5 210.5 L 470.5 210.5 M 53.5 173.5 L 470.5 173.5 M 53.5 135.5 L 470.5 135.5 M 53.5 98.5 L 470.5 98.5 M 53.5 61.5 L 470.5 61.5" stroke-opacity="1" stroke-linejoin="bevel" stroke-miterlimit="10" stroke-dasharray="" clip-path="url(#bnZFTOOxWTFw)"/><path fill="rgb(0,0,4)" stroke="rgb(0,0,4)" paint-order="fill" d="M 75.45454406738281 169.4791717529297 A 3 3 0 0 1 69.45454406738281 169.4791717529297 A 3 3 0 0 1 75.45454406738281 169.4791717529297" fill-opacity="1" clip-path="url(#TkVHnLXwibhA)" stroke-opacity="1" stroke-linejoin="bevel" stroke-miterlimit="10" stroke-dasharray=""/><path fill="rgb(0,0,4)" stroke="rgb(0,0,4)" paint-order="fill" d="M 108.8698501586914 218.05654907226562 A 3 3 0 0 1 102.8698501586914 218.05654907226562 A 3 3 0 0 1 108.8698501586914 218.05654907226562" fill-opacity="1" clip-path="url(#TkVHnLXwibhA)" stroke-opacity="1" stroke-linejoin="bevel" stroke-miterlimit="10" stroke-dasharray=""/><path fill="rgb(0,0,4)" stroke="rgb(0,0,4)" paint-order="fill" d="M 149.19866943359375 86.2627944946289 A 3 3 0 0 1 143.19866943359375 86.2627944946289 A 3 3 0 0 1 149.19866943359375 86.2627944946289" fill-opacity="1" clip-path="url(#TkVHnLXwibhA)" stroke-opacity="1" stroke-linejoin="bevel" stroke-miterlimit="10" stroke-dasharray=""/><path fill="rgb(0,0,4)" stroke="rgb(0,0,4)" paint-order="fill" d="M 196.44100952148438 152.31956481933594 A 3 3 0 0 1 190.44100952148438 152.31956481933594 A 3 3 0 0 1 196.44100952148438 152.31956481933594" fill-opacity="1" clip-path="url(#TkVHnLXwibhA)" stroke-opacity="1" stroke-linejoin="bevel" stroke-miterlimit="10" stroke-dasharray=""/><path fill="rgb(0,0,4)" stroke="rgb(0,0,4)" paint-order="fill" d="M 250.5968475341797 54.652286529541016 A 3 3 0 0 1 244.5968475341797 54.652286529541016 A 3 3 0 0 1 250.5968475341797 54.652286529541016" fill-opacity="1" clip-path="url(#TkVHnLXwibhA)" stroke-opacity="1" stroke-linejoin="bevel" stroke-miterlimit="10" stroke-dasharray=""/><path fill="rgb(0,0,4)" stroke="rgb(0,0,4)" paint-order="fill" d="M 311.66619873046875 123.95999145507812 A 3 3 0 0 1 305.66619873046875 123.95999145507812 A 3 3 0 0 1 311.66619873046875 123.95999145507812" fill-opacity="1" clip-path="url(#TkVHnLXwibhA)" stroke-opacity="1" stroke-linejoin="bevel" stroke-miterlimit="10" stroke-dasharray=""/><path fill="rgb(0,0,4)" stroke="rgb(0,0,4)" paint-order="fill" d="M 379.6490783691406 47.272727966308594 A 3 3 0 0 1 373.6490783691406 47.272727966308594 A 3 3 0 0 1 379.6490783691406 47.272727966308594" fill-opacity="1" clip-path="url(#TkVHnLXwibhA)" stroke-opacity="1" stroke-linejoin="bevel" stroke-miterlimit="10" stroke-dasharray=""/><path fill="rgb(0,0,4)" stroke="rgb(0,0,4)" paint-order="fill" d="M 454.5454406738281 88.52429962158203 A 3 3 0 0 1 448.5454406738281 88.52429962158203 A 3 3 0 0 1 454.5454406738281 88.52429962158203" fill-opacity="1" clip-path="url(#TkVHnLXwibhA)" stroke-opacity="1" stroke-linejoin="bevel" stroke-miterlimit="10" stroke-dasharray=""/><path fill="rgb(65,9,103)" stroke="rgb(65,9,103)" paint-order="fill" d="M 75.45454406738281 234.5225372314453 A 3 3 0 0 1 69.45454406738281 234.5225372314453 A 3 3 0 0 1 75.45454406738281 234.5225372314453" fill-opacity="1" clip-path="url(#eNWwcBWekfLU)" stroke-opacity="1" stroke-linejoin="bevel" stroke-miterlimit="10" stroke-dasharray=""/><path fill="rgb(65,9,103)" stroke="rgb(65,9,103)" paint-order="fill" d="M 108.8698501586914 230.71112060546875 A 3 3 0 0 1 102.8698501586914 230.71112060546875 A 3 3 0 0 1 108.8698501586914 230.71112060546875" fill-opacity="1" clip-path="url(#eNWwcBWekfLU)" stroke-opacity="1" stroke-linejoin="bevel" stroke-miterlimit="10" stroke-dasharray=""/><path fill="rgb(65,9,103)" stroke="rgb(65,9,103)" paint-order="fill" d="M 149.19866943359375 152.21173095703125 A 3 3 0 0 1 143.19866943359375 152.21173095703125 A 3 3 0 0 1 149.19866943359375 152.21173095703125" fill-opacity="1" clip-path="url(#eNWwcBWekfLU)" stroke-opacity="1" stroke-linejoin="bevel" stroke-miterlimit="10" stroke-dasharray=""/><path fill="rgb(65,9,103)" stroke="rgb(65,9,103)" paint-order="fill" d="M 196.44100952148438 194.71107482910156 A 3 3 0 0 1 190.44100952148438 194.71107482910156 A 3 3 0 0 1 196.44100952148438 194.71107482910156" fill-opacity="1" clip-path="url(#eNWwcBWekfLU)" stroke-opacity="1" stroke-linejoin="bevel" stroke-miterlimit="10" stroke-dasharray=""/><path fill="rgb(65,9,103)" stroke="rgb(65,9,103)" paint-order="fill" d="M 250.5968475341797 100.37164306640625 A 3 3 0 0 1 244.5968475341797 100.37164306640625 A 3 3 0 0 1 250.5968475341797 100.37164306640625" fill-opacity="1" clip-path="url(#eNWwcBWekfLU)" stroke-opacity="1" stroke-linejoin="bevel" stroke-miterlimit="10" stroke-dasharray=""/><path fill="rgb(65,9,103)" stroke="rgb(65,9,103)" paint-order="fill" d="M 311.66619873046875 146.85910034179688 A 3 3 0 0 1 305.66619873046875 146.85910034179688 A 3 3 0 0 1 311.66619873046875 146.85910034179688" fill-opacity="1" clip-path="url(#eNWwcBWekfLU)" stroke-opacity="1" stroke-linejoin="bevel" stroke-miterlimit="10" stroke-dasharray=""/><path fill="rgb(65,9,103)" stroke="rgb(65,9,103)" paint-order="fill" d="M 379.6490783691406 64.73410034179688 A 3 3 0 0 1 373.6490783691406 64.73410034179688 A 3 3 0 0 1 379.6490783691406 64.73410034179688" fill-opacity="1" clip-path="url(#eNWwcBWekfLU)" stroke-opacity="1" stroke-linejoin="bevel" stroke-miterlimit="10" stroke-dasharray=""/><path fill="rgb(65,9,103)" stroke="rgb(65,9,103)" paint-order="fill" d="M 454.5454406738281 103.28343200683594 A 3 3 0 0 1 448.5454406738281 103.28343200683594 A 3 3 0 0 1 454.5454406738281 103.28343200683594" fill-opacity="1" clip-path="url(#eNWwcBWekfLU)" stroke-opacity="1" stroke-linejoin="bevel" stroke-miterlimit="10" stroke-dasharray=""/><path fill="rgb(147,37,103)" stroke="rgb(147,37,103)" paint-order="fill" d="M 75.45454406738281 263.57745361328125 A 3 3 0 0 1 69.45454406738281 263.57745361328125 A 3 3 0 0 1 75.45454406738281 263.57745361328125" fill-opacity="1" clip-path="url(#qiEdQWXNKFnI)" stroke-opacity="1" stroke-linejoin="bevel" stroke-miterlimit="10" stroke-dasharray=""/><path fill="rgb(147,37,103)" stroke="rgb(147,37,103)" paint-order="fill" d="M 108.8698501586914 231.36566162109375 A 3 3 0 0 1 102.8698501586914 231.36566162109375 A 3 3 0 0 1 108.8698501586914 231.36566162109375" fill-opacity="1" clip-path="url(#qiEdQWXNKFnI)" stroke-opacity="1" stroke-linejoin="bevel" stroke-miterlimit="10" stroke-dasharray=""/><path fill="rgb(147,37,103)" stroke="rgb(147,37,103)" paint-order="fill" d="M 149.19866943359375 165.2157440185547 A 3 3 0 0 1 143.19866943359375 165.2157440185547 A 3 3 0 0 1 149.19866943359375 165.2157440185547" fill-opacity="1" clip-path="url(#qiEdQWXNKFnI)" stroke-opacity="1" stroke-linejoin="bevel" stroke-miterlimit="10" stroke-dasharray=""/><path fill="rgb(147,37,103)" stroke="rgb(147,37,103)" paint-order="fill" d="M 196.44100952148438 208.34103393554688 A 3 3 0 0 1 190.44100952148438 208.34103393554688 A 3 3 0 0 1 196.44100952148438 208.34103393554688" fill-opacity="1" clip-path="url(#qiEdQWXNKFnI)" stroke-opacity="1" stroke-linejoin="bevel" stroke-miterlimit="10" stroke-dasharray=""/><path fill="rgb(147,37,103)" stroke="rgb(147,37,103)" paint-order="fill" d="M 250.5968475341797 103.95045471191406 A 3 3 0 0 1 244.5968475341797 103.95045471191406 A 3 3 0 0 1 250.5968475341797 103.95045471191406" fill-opacity="1" clip-path="url(#qiEdQWXNKFnI)" stroke-opacity="1" stroke-linejoin="bevel" stroke-miterlimit="10" stroke-dasharray=""/><path fill="rgb(147,37,103)" stroke="rgb(147,37,103)" paint-order="fill" d="M 311.66619873046875 158.77235412597656 A 3 3 0 0 1 305.66619873046875 158.77235412597656 A 3 3 0 0 1 311.66619873046875 158.77235412597656" fill-opacity="1" clip-path="url(#qiEdQWXNKFnI)" stroke-opacity="1" stroke-linejoin="bevel" stroke-miterlimit="10" stroke-dasharray=""/><path fill="rgb(147,37,103)" stroke="rgb(147,37,103)" paint-order="fill" d="M 379.6490783691406 57.28391647338867 A 3 3 0 0 1 373.6490783691406 57.28391647338867 A 3 3 0 0 1 379.6490783691406 57.28391647338867" fill-opacity="1" clip-path="url(#qiEdQWXNKFnI)" stroke-opacity="1" stroke-linejoin="bevel" stroke-miterlimit="10" stroke-dasharray=""/><path fill="rgb(147,37,103)" stroke="rgb(147,37,103)" paint-order="fill" d="M 454.5454406738281 105.12226867675781 A 3 3 0 0 1 448.5454406738281 105.12226867675781 A 3 3 0 0 1 454.5454406738281 105.12226867675781" fill-opacity="1" clip-path="url(#qiEdQWXNKFnI)" stroke-opacity="1" stroke-linejoin="bevel" stroke-miterlimit="10" stroke-dasharray=""/><path fill="rgb(220,80,57)" stroke="rgb(220,80,57)" paint-order="fill" d="M 75.45454406738281 277.77471923828125 A 3 3 0 0 1 69.45454406738281 277.77471923828125 A 3 3 0 0 1 75.45454406738281 277.77471923828125" fill-opacity="1" clip-path="url(#FectKtuUaOyu)" stroke-opacity="1" stroke-linejoin="bevel" stroke-miterlimit="10" stroke-dasharray=""/><path fill="rgb(220,80,57)" stroke="rgb(220,80,57)" paint-order="fill" d="M 108.8698501586914 232.45657348632812 A 3 3 0 0 1 102.8698501586914 232.45657348632812 A 3 3 0 0 1 108.8698501586914 232.45657348632812" fill-opacity="1" clip-path="url(#FectKtuUaOyu)" stroke-opacity="1" stroke-linejoin="bevel" stroke-miterlimit="10" stroke-dasharray=""/><path fill="rgb(220,80,57)" stroke="rgb(220,80,57)" paint-order="fill" d="M 149.19866943359375 165.83499145507812 A 3 3 0 0 1 143.19866943359375 165.83499145507812 A 3 3 0 0 1 149.19866943359375 165.83499145507812" fill-opacity="1" clip-path="url(#FectKtuUaOyu)" stroke-opacity="1" stroke-linejoin="bevel" stroke-miterlimit="10" stroke-dasharray=""/><path fill="rgb(220,80,57)" stroke="rgb(220,80,57)" paint-order="fill" d="M 196.44100952148438 217.004150390625 A 3 3 0 0 1 190.44100952148438 217.004150390625 A 3 3 0 0 1 196.44100952148438 217.004150390625" fill-opacity="1" clip-path="url(#FectKtuUaOyu)" stroke-opacity="1" stroke-linejoin="bevel" stroke-miterlimit="10" stroke-dasharray=""/><path fill="rgb(220,80,57)" stroke="rgb(220,80,57)" paint-order="fill" d="M 250.5968475341797 114.15007781982422 A 3 3 0 0 1 244.5968475341797 114.15007781982422 A 3 3 0 0 1 250.5968475341797 114.15007781982422" fill-opacity="1" clip-path="url(#FectKtuUaOyu)" stroke-opacity="1" stroke-linejoin="bevel" stroke-miterlimit="10" stroke-dasharray=""/><path fill="rgb(220,80,57)" stroke="rgb(220,80,57)" paint-order="fill" d="M 311.66619873046875 161.55447387695312 A 3 3 0 0 1 305.66619873046875 161.55447387695312 A 3 3 0 0 1 311.66619873046875 161.55447387695312" fill-opacity="1" clip-path="url(#FectKtuUaOyu)" stroke-opacity="1" stroke-linejoin="bevel" stroke-miterlimit="10" stroke-dasharray=""/><path fill="rgb(220,80,57)" stroke="rgb(220,80,57)" paint-order="fill" d="M 379.6490783691406 74.68708801269531 A 3 3 0 0 1 373.6490783691406 74.68708801269531 A 3 3 0 0 1 379.6490783691406 74.68708801269531" fill-opacity="1" clip-path="url(#FectKtuUaOyu)" stroke-opacity="1" stroke-linejoin="bevel" stroke-miterlimit="10" stroke-dasharray=""/><path fill="rgb(220,80,57)" stroke="rgb(220,80,57)" paint-order="fill" d="M 454.5454406738281 107.88053894042969 A 3 3 0 0 1 448.5454406738281 107.88053894042969 A 3 3 0 0 1 454.5454406738281 107.88053894042969" fill-opacity="1" clip-path="url(#FectKtuUaOyu)" stroke-opacity="1" stroke-linejoin="bevel" stroke-miterlimit="10" stroke-dasharray=""/><path fill="rgb(251,164,10)" stroke="rgb(251,164,10)" paint-order="fill" d="M 75.45454406738281 282.7272644042969 A 3 3 0 0 1 69.45454406738281 282.7272644042969 A 3 3 0 0 1 75.45454406738281 282.7272644042969" fill-opacity="1" clip-path="url(#fSaJzmZNxJHz)" stroke-opacity="1" stroke-linejoin="bevel" stroke-miterlimit="10" stroke-dasharray=""/><path fill="rgb(251,164,10)" stroke="rgb(251,164,10)" paint-order="fill" d="M 108.8698501586914 237.03839111328125 A 3 3 0 0 1 102.8698501586914 237.03839111328125 A 3 3 0 0 1 108.8698501586914 237.03839111328125" fill-opacity="1" clip-path="url(#fSaJzmZNxJHz)" stroke-opacity="1" stroke-linejoin="bevel" stroke-miterlimit="10" stroke-dasharray=""/><path fill="rgb(251,164,10)" stroke="rgb(251,164,10)" paint-order="fill" d="M 149.19866943359375 169.5504150390625 A 3 3 0 0 1 143.19866943359375 169.5504150390625 A 3 3 0 0 1 149.19866943359375 169.5504150390625" fill-opacity="1" clip-path="url(#fSaJzmZNxJHz)" stroke-opacity="1" stroke-linejoin="bevel" stroke-miterlimit="10" stroke-dasharray=""/><path fill="rgb(251,164,10)" stroke="rgb(251,164,10)" paint-order="fill" d="M 196.44100952148438 221.16244506835938 A 3 3 0 0 1 190.44100952148438 221.16244506835938 A 3 3 0 0 1 196.44100952148438 221.16244506835938" fill-opacity="1" clip-path="url(#fSaJzmZNxJHz)" stroke-opacity="1" stroke-linejoin="bevel" stroke-miterlimit="10" stroke-dasharray=""/><path fill="rgb(251,164,10)" stroke="rgb(251,164,10)" paint-order="fill" d="M 250.5968475341797 117.10260009765625 A 3 3 0 0 1 244.5968475341797 117.10260009765625 A 3 3 0 0 1 250.5968475341797 117.10260009765625" fill-opacity="1" clip-path="url(#fSaJzmZNxJHz)" stroke-opacity="1" stroke-linejoin="bevel" stroke-miterlimit="10" stroke-dasharray=""/><path fill="rgb(251,164,10)" stroke="rgb(251,164,10)" paint-order="fill" d="M 311.66619873046875 164.62196350097656 A 3 3 0 0 1 305.66619873046875 164.62196350097656 A 3 3 0 0 1 311.66619873046875 164.62196350097656" fill-opacity="1" clip-path="url(#fSaJzmZNxJHz)" stroke-opacity="1" stroke-linejoin="bevel" stroke-miterlimit="10" stroke-dasharray=""/><path fill="rgb(251,164,10)" stroke="rgb(251,164,10)" paint-order="fill" d="M 379.6490783691406 73.11556243896484 A 3 3 0 0 1 373.6490783691406 73.11556243896484 A 3 3 0 0 1 379.6490783691406 73.11556243896484" fill-opacity="1" clip-path="url(#fSaJzmZNxJHz)" stroke-opacity="1" stroke-linejoin="bevel" stroke-miterlimit="10" stroke-dasharray=""/><path fill="rgb(251,164,10)" stroke="rgb(251,164,10)" paint-order="fill" d="M 454.5454406738281 104.20285034179688 A 3 3 0 0 1 448.5454406738281 104.20285034179688 A 3 3 0 0 1 454.5454406738281 104.20285034179688" fill-opacity="1" clip-path="url(#fSaJzmZNxJHz)" stroke-opacity="1" stroke-linejoin="bevel" stroke-miterlimit="10" stroke-dasharray=""/><path fill="none" stroke="rgb(0,0,0)" paint-order="fill" d="M 53.5 294.5 L 470.5 294.5" stroke-opacity="1" stroke-linejoin="bevel" stroke-miterlimit="10" stroke-dasharray=""/><path fill="none" stroke="rgb(0,0,0)" paint-order="fill" d="M 64.5 300.5 L 64.5 292.5 M 122.5 300.5 L 122.5 292.5 M 180.5 300.5 L 180.5 292.5 M 237.5 300.5 L 237.5 292.5 M 295.5 300.5 L 295.5 292.5 M 353.5 300.5 L 353.5 292.5 M 410.5 300.5 L 410.5 292.5 M 468.5 300.5 L 468.5 292.5" stroke-opacity="1" stroke-linejoin="bevel" stroke-miterlimit="10" stroke-dasharray=""/><text fill="rgb(68,68,68)" stroke="none" font-family="helvetica" font-size="18px" font-style="normal" font-weight="normal" text-decoration="normal" x="44.19293212890625" y="317.9111328125" text-anchor="start" dominant-baseline="alphabetic" transform="matrix(1, 0, 0, 1, 0.5, 0.5)" fill-opacity="1">1e+2</text><text fill="rgb(68,68,68)" stroke="none" font-family="helvetica" font-size="18px" font-style="normal" font-weight="normal" text-decoration="normal" x="101.80553436279297" y="317.9111328125" text-anchor="start" dominant-baseline="alphabetic" transform="matrix(1, 0, 0, 1, 0.5, 0.5)" fill-opacity="1">2e+2</text><text fill="rgb(68,68,68)" stroke="none" font-family="helvetica" font-size="18px" font-style="normal" font-weight="normal" text-decoration="normal" x="159.4181365966797" y="317.9111328125" text-anchor="start" dominant-baseline="alphabetic" transform="matrix(1, 0, 0, 1, 0.5, 0.5)" fill-opacity="1">3e+2</text><text fill="rgb(68,68,68)" stroke="none" font-family="helvetica" font-size="18px" font-style="normal" font-weight="normal" text-decoration="normal" x="217.03073120117188" y="317.9111328125" text-anchor="start" dominant-baseline="alphabetic" transform="matrix(1, 0, 0, 1, 0.5, 0.5)" fill-opacity="1">4e+2</text><text fill="rgb(68,68,68)" stroke="none" font-family="helvetica" font-size="18px" font-style="normal" font-weight="normal" text-decoration="normal" x="274.6433410644531" y="317.9111328125" text-anchor="start" dominant-baseline="alphabetic" transform="matrix(1, 0, 0, 1, 0.5, 0.5)" fill-opacity="1">5e+2</text><text fill="rgb(68,68,68)" stroke="none" font-family="helvetica" font-size="18px" font-style="normal" font-weight="normal" text-decoration="normal" x="332.25592041015625" y="317.9111328125" text-anchor="start" dominant-baseline="alphabetic" transform="matrix(1, 0, 0, 1, 0.5, 0.5)" fill-opacity="1">6e+2</text><text fill="rgb(68,68,68)" stroke="none" font-family="helvetica" font-size="18px" font-style="normal" font-weight="normal" text-decoration="normal" x="389.8685302734375" y="317.9111328125" text-anchor="start" dominant-baseline="alphabetic" transform="matrix(1, 0, 0, 1, 0.5, 0.5)" fill-opacity="1">7e+2</text><text fill="rgb(68,68,68)" stroke="none" font-family="helvetica" font-size="18px" font-style="normal" font-weight="normal" text-decoration="normal" x="447.48114013671875" y="317.9111328125" text-anchor="start" dominant-baseline="alphabetic" transform="matrix(1, 0, 0, 1, 0.5, 0.5)" fill-opacity="1">8e+2</text><text fill="rgb(68,68,68)" stroke="none" font-family="helvetica" font-size="18px" font-style="italic" font-weight="normal" text-decoration="normal" x="163.9853515625" y="342.9111328125" text-anchor="start" dominant-baseline="alphabetic" transform="matrix(1, 0, 0, 1, 0.5, 0.5)" fill-opacity="1">Number of simplices (m)</text><path fill="none" stroke="rgb(0,0,0)" paint-order="fill" d="M 53.5 294.5 L 53.5 35.5" stroke-opacity="1" stroke-linejoin="bevel" stroke-miterlimit="10" stroke-dasharray=""/><path fill="none" stroke="rgb(0,0,0)" paint-order="fill" d="M 47.5 285.5 L 55.5 285.5 M 47.5 247.5 L 55.5 247.5 M 47.5 210.5 L 55.5 210.5 M 47.5 173.5 L 55.5 173.5 M 47.5 135.5 L 55.5 135.5 M 47.5 98.5 L 55.5 98.5 M 47.5 61.5 L 55.5 61.5" stroke-opacity="1" stroke-linejoin="bevel" stroke-miterlimit="10" stroke-dasharray=""/><path fill="none" stroke="rgb(0,0,0)" paint-order="fill" d="M 49.5 292.5 L 53.5 292.5 M 49.5 285.5 L 53.5 285.5 M 49.5 277.5 L 53.5 277.5 M 49.5 270.5 L 53.5 270.5 M 49.5 262.5 L 53.5 262.5 M 49.5 255.5 L 53.5 255.5 M 49.5 247.5 L 53.5 247.5 M 49.5 240.5 L 53.5 240.5 M 49.5 232.5 L 53.5 232.5 M 49.5 225.5 L 53.5 225.5 M 49.5 217.5 L 53.5 217.5 M 49.5 210.5 L 53.5 210.5 M 49.5 202.5 L 53.5 202.5 M 49.5 195.5 L 53.5 195.5 M 49.5 188.5 L 53.5 188.5 M 49.5 180.5 L 53.5 180.5 M 49.5 173.5 L 53.5 173.5 M 49.5 165.5 L 53.5 165.5 M 49.5 158.5 L 53.5 158.5 M 49.5 150.5 L 53.5 150.5 M 49.5 143.5 L 53.5 143.5 M 49.5 135.5 L 53.5 135.5 M 49.5 128.5 L 53.5 128.5 M 49.5 120.5 L 53.5 120.5 M 49.5 113.5 L 53.5 113.5 M 49.5 105.5 L 53.5 105.5 M 49.5 98.5 L 53.5 98.5 M 49.5 91.5 L 53.5 91.5 M 49.5 83.5 L 53.5 83.5 M 49.5 76.5 L 53.5 76.5 M 49.5 68.5 L 53.5 68.5 M 49.5 61.5 L 53.5 61.5 M 49.5 53.5 L 53.5 53.5 M 49.5 46.5 L 53.5 46.5 M 49.5 38.5 L 53.5 38.5" stroke-opacity="1" stroke-linejoin="bevel" stroke-miterlimit="10" stroke-dasharray=""/><text fill="rgb(68,68,68)" stroke="none" font-family="helvetica" font-size="18px" font-style="normal" font-weight="normal" text-decoration="normal" x="31.9892578125" y="290.9940185546875" text-anchor="start" dominant-baseline="alphabetic" transform="matrix(1, 0, 0, 1, 0.5, 0.5)" fill-opacity="1">3</text><text fill="rgb(68,68,68)" stroke="none" font-family="helvetica" font-size="18px" font-style="normal" font-weight="normal" text-decoration="normal" x="31.9892578125" y="253.6848907470703" text-anchor="start" dominant-baseline="alphabetic" transform="matrix(1, 0, 0, 1, 0.5, 0.5)" fill-opacity="1">4</text><text fill="rgb(68,68,68)" stroke="none" font-family="helvetica" font-size="18px" font-style="normal" font-weight="normal" text-decoration="normal" x="31.9892578125" y="216.37574768066406" text-anchor="start" dominant-baseline="alphabetic" transform="matrix(1, 0, 0, 1, 0.5, 0.5)" fill-opacity="1">5</text><text fill="rgb(68,68,68)" stroke="none" font-family="helvetica" font-size="18px" font-style="normal" font-weight="normal" text-decoration="normal" x="31.9892578125" y="179.0666046142578" text-anchor="start" dominant-baseline="alphabetic" transform="matrix(1, 0, 0, 1, 0.5, 0.5)" fill-opacity="1">6</text><text fill="rgb(68,68,68)" stroke="none" font-family="helvetica" font-size="18px" font-style="normal" font-weight="normal" text-decoration="normal" x="31.9892578125" y="141.75746154785156" text-anchor="start" dominant-baseline="alphabetic" transform="matrix(1, 0, 0, 1, 0.5, 0.5)" fill-opacity="1">7</text><text fill="rgb(68,68,68)" stroke="none" font-family="helvetica" font-size="18px" font-style="normal" font-weight="normal" text-decoration="normal" x="31.9892578125" y="104.44832611083984" text-anchor="start" dominant-baseline="alphabetic" transform="matrix(1, 0, 0, 1, 0.5, 0.5)" fill-opacity="1">8</text><text fill="rgb(68,68,68)" stroke="none" font-family="helvetica" font-size="18px" font-style="normal" font-weight="normal" text-decoration="normal" x="31.9892578125" y="67.13919067382812" text-anchor="start" dominant-baseline="alphabetic" transform="matrix(1, 0, 0, 1, 0.5, 0.5)" fill-opacity="1">9</text><text fill="rgb(68,68,68)" stroke="none" font-family="helvetica" font-size="18px" font-style="italic" font-weight="normal" text-decoration="normal" x="-109.068359375" y="160.5" text-anchor="start" dominant-baseline="alphabetic" transform="matrix(6.123233995736766e-17, -1, 1, 6.123233995736766e-17, -140.0107421875, 188.9892578125)" fill-opacity="1">Number of column operations / m</text><path fill="rgb(255,255,255)" stroke="rgb(229,229,229)" paint-order="fill" d="M 373.5 144.5 L 462.43896484375 144.5 L 462.43896484375 284.5 L 373.5 284.5 L 373.5 144.5" fill-opacity="0.9490196078431372" clip-path="url(#JTGDsglCDMyb)" stroke-opacity="0.5019607843137255" stroke-linejoin="bevel" stroke-miterlimit="10" stroke-dasharray=""/><g clip-path="url(#JTGDsglCDMyb)"><text fill="rgb(68,68,68)" stroke="none" font-family="helvetica" font-size="13px" font-style="normal" font-weight="normal" text-decoration="normal" x="402" y="178" text-anchor="start" dominant-baseline="central" transform="matrix(1, 0, 0, 1, 0.5, 0.5)" fill-opacity="1">0.0</text></g><path fill="rgb(0,0,4)" stroke="rgb(0,0,4)" paint-order="fill" d="M 391.5 178.5 A 4 4 0 0 1 383.5 178.5 A 4 4 0 0 1 391.5 178.5" fill-opacity="1" clip-path="url(#JTGDsglCDMyb)" stroke-opacity="1" stroke-linejoin="bevel" stroke-miterlimit="10" stroke-dasharray=""/><g clip-path="url(#JTGDsglCDMyb)"><text fill="rgb(68,68,68)" stroke="none" font-family="helvetica" font-size="13px" font-style="normal" font-weight="normal" text-decoration="normal" x="402" y="201" text-anchor="start" dominant-baseline="central" transform="matrix(1, 0, 0, 1, 0.5, 0.5)" fill-opacity="1">0.25</text></g><path fill="rgb(65,9,103)" stroke="rgb(65,9,103)" paint-order="fill" d="M 391.5 201.5 A 4 4 0 0 1 383.5 201.5 A 4 4 0 0 1 391.5 201.5" fill-opacity="1" clip-path="url(#JTGDsglCDMyb)" stroke-opacity="1" stroke-linejoin="bevel" stroke-miterlimit="10" stroke-dasharray=""/><g clip-path="url(#JTGDsglCDMyb)"><text fill="rgb(68,68,68)" stroke="none" font-family="helvetica" font-size="13px" font-style="normal" font-weight="normal" text-decoration="normal" x="402" y="224" text-anchor="start" dominant-baseline="central" transform="matrix(1, 0, 0, 1, 0.5, 0.5)" fill-opacity="1">0.5</text></g><path fill="rgb(147,37,103)" stroke="rgb(147,37,103)" paint-order="fill" d="M 391.5 224.5 A 4 4 0 0 1 383.5 224.5 A 4 4 0 0 1 391.5 224.5" fill-opacity="1" clip-path="url(#JTGDsglCDMyb)" stroke-opacity="1" stroke-linejoin="bevel" stroke-miterlimit="10" stroke-dasharray=""/><g clip-path="url(#JTGDsglCDMyb)"><text fill="rgb(68,68,68)" stroke="none" font-family="helvetica" font-size="13px" font-style="normal" font-weight="normal" text-decoration="normal" x="402" y="247" text-anchor="start" dominant-baseline="central" transform="matrix(1, 0, 0, 1, 0.5, 0.5)" fill-opacity="1">0.75</text></g><path fill="rgb(220,80,57)" stroke="rgb(220,80,57)" paint-order="fill" d="M 391.5 247.5 A 4 4 0 0 1 383.5 247.5 A 4 4 0 0 1 391.5 247.5" fill-opacity="1" clip-path="url(#JTGDsglCDMyb)" stroke-opacity="1" stroke-linejoin="bevel" stroke-miterlimit="10" stroke-dasharray=""/><g clip-path="url(#JTGDsglCDMyb)"><text fill="rgb(68,68,68)" stroke="none" font-family="helvetica" font-size="13px" font-style="normal" font-weight="normal" text-decoration="normal" x="402" y="270" text-anchor="start" dominant-baseline="central" transform="matrix(1, 0, 0, 1, 0.5, 0.5)" fill-opacity="1">1.0</text></g><path fill="rgb(251,164,10)" stroke="rgb(251,164,10)" paint-order="fill" d="M 391.5 270.5 A 4 4 0 0 1 383.5 270.5 A 4 4 0 0 1 391.5 270.5" fill-opacity="1" clip-path="url(#JTGDsglCDMyb)" stroke-opacity="1" stroke-linejoin="bevel" stroke-miterlimit="10" stroke-dasharray=""/><g clip-path="url(#JTGDsglCDMyb)"><text fill="rgb(68,68,68)" stroke="none" font-family="helvetica" font-size="13px" font-style="italic" font-weight="normal" text-decoration="normal" x="4" y="-1" text-anchor="start" dominant-baseline="text-after-edge" transform="matrix(1, 0, 0, 1, 373.5, 164.5)" fill-opacity="1">Schedule size</text></g><path fill="none" stroke="rgb(0,0,4)" paint-order="fill" d="M 518.1466235018651 35.5 L -366.6185601606126 294.5" stroke-opacity="1" stroke-linejoin="bevel" stroke-miterlimit="10" stroke-width="1.5" stroke-dasharray="6" clip-path="url(#FiTtXEpfaPmb)"/><path fill="none" stroke="rgb(65,9,103)" paint-order="fill" d="M 536.9900396735812 35.5 L -120.11515439024745 294.5" stroke-opacity="1" stroke-linejoin="bevel" stroke-miterlimit="10" stroke-width="1.5" stroke-dasharray="6" clip-path="url(#MfTGXGXagegX)"/><path fill="none" stroke="rgb(147,37,103)" paint-order="fill" d="M 520.9837697302644 35.5 L -60.1715167788667 294.5" stroke-opacity="1" stroke-linejoin="bevel" stroke-miterlimit="10" stroke-width="1.5" stroke-dasharray="6" clip-path="url(#eQBwoHxFrAoe)"/><path fill="none" stroke="rgb(220,80,57)" paint-order="fill" d="M 539.1727687017992 35.5 L -45.86783419210829 294.5" stroke-opacity="1" stroke-linejoin="bevel" stroke-miterlimit="10" stroke-width="1.5" stroke-dasharray="6" clip-path="url(#imzSXmQiTgQX)"/><path fill="none" stroke="rgb(251,164,10)" paint-order="fill" d="M 530.0360008616839 35.5 L -27.76721413832007 294.5" stroke-opacity="1" stroke-linejoin="bevel" stroke-miterlimit="10" stroke-width="1.5" stroke-dasharray="6" clip-path="url(#ucaUOsWeWFLJ)"/><text fill="rgb(68,68,68)" stroke="none" font-family="helvetica" font-size="20px" font-style="normal" font-weight="bold" text-decoration="normal" x="53" y="25" text-anchor="start" dominant-baseline="alphabetic" transform="matrix(1, 0, 0, 1, 0.5, 0.5)" fill-opacity="1">Schedule scaling on grayscale image data</text></svg>