<svg version="1.1" xmlns="http://www.w3.org/2000/svg" width="500" height="350"><defs><clipPath id="rhXGgqODTSSV"><path fill="none" stroke="none" d="M 76.5 33.5 L 470.5 33.5 L 470.5 294.5 L 76.5 294.5 L 76.5 33.5"/></clipPath><clipPath id="XTnnbHfLlBvz"><path fill="none" stroke="none" d="M 76.5 33.5 L 470.5 33.5 L 470.5 294.5 L 76.5 294.5 L 76.5 33.5"/></clipPath><clipPath id="cPSmcqBebyvw"><path fill="none" stroke="none" d="M 76.5 33.5 L 470.5 33.5 L 470.5 294.5 L 76.5 294.5 L 76.5 33.5"/></clipPath><clipPath id="QQPnsTmmpnwr"><path fill="none" stroke="none" d="M 76.5 33.5 L 470.5 33.5 L 470.5 294.5 L 76.5 294.5 L 76.5 33.5"/></clipPath><clipPath id="CGTqBPHJzFrl"><path fill="none" stroke="none" d="M 76.5 33.5 L 470.5 33.5 L 470.5 294.5 L 76.5 294.5 L 76.5 33.5"/></clipPath><clipPath id="qseshBkTcDsU"><path fill="none" stroke="none" d="M 76.5 33.5 L 470.5 33.5 L 470.5 294.5 L 76.5 294.5 L 76.5 33.5"/></clipPath><clipPath id="yqMAEdyXBOJc"><path fill="none" stroke="none" d="M 76.5 33.5 L 470.5 33.5 L 470.5 294.5 L 76.5 294.5 L 76.5 33.5"/></clipPath><clipPath id="WNqLxOcFonEP"><path fill="none" stroke="none" d="M 76.5 33.5 L 470.5 33.5 L 470.5 294.5 L 76.5 294.5 L 76.5 33.5"/></clipPath><clipPath id="FUbykMaiZIwn"><path fill="none" stroke="none" d="M 76.5 33.5 L 470.5 33.5 L 470.5 294.5 L 76.5 294.5 L 76.5 33.5"/></clipPath><clipPath id="QQrnIGleAoRL"><path fill="none" stroke="none" d="M 76.5 33.5 L 470.5 33.5 L 470.5 294.5 L 76.5 294.5 L 76.5 33.5"/></clipPath><clipPath id="SnktpyCfDdWT"><path fill="none" stroke="none" d="M 76.5 33.5 L 470.5 33.5 L 470.5 294.5 L 76.5 294.5 L 76.5 33.5"/></clipPath><clipPath id="mTcEIsVEyziv"><path fill="none" stroke="none" d="M 76.5 33.5 L 470.5 33.5 L 470.5 294.5 L 76.5 294.5 L 76.5 33.5"/></clipPath><clipPath id="EPplawGvXGBP"><path fill="none" stroke="none" d="M 76.5 33.5 L 470.5 33.5 L 470.5 294.5 L 76.5 294.5 L 76.5 33.5"/></clipPath><clipPath id="nixvRqTfloRG"><path fill="none" stroke="none" d="M 76.5 33.5 L 470.5 33.5 L 470.5 294.5 L 76.5 294.5 L 76.5 33.5"/></clipPath></defs><path fill="rgb(255,255,255)" stroke="none" paint-order="stroke" d="M 0.5 0.5 L 500.5 0.5 L 500.5 350.5 L 0.5 350.5 L 0.5 0.5" fill-opacity="1"/><rect fill="#FFFFFF" stroke="none" x="76" y="33" width="394" height="261" transform="matrix(1, 0, 0, 1, 0.5, 0.5)"/><path fill="rgb(255,255,255)" stroke="none" paint-order="stroke" d="M 76.5 33.5 L 470.5 33.5 L 470.5 294.5 L 76.5 294.5 L 76.5 33.5" fill-opacity="1"/><path fill="none" stroke="rgb(229,229,229)" paint-order="fill" d="M 76.5 33.5 L 470.5 33.5 L 470.5 294.5 L 76.5 294.5 L 76.5 33.5" stroke-opacity="1" stroke-linejoin="bevel" stroke-miterlimit="10" stroke-dasharray=""/><path fill="none" stroke="rgb(229,229,229)" paint-order="fill" d="M 155.5 294.5 L 155.5 33.5 M 234.5 294.5 L 234.5 33.5 M 312.5 294.5 L 312.5 33.5 M 391.5 294.5 L 391.5 33.5" stroke-opacity="1" stroke-linejoin="bevel" stroke-miterlimit="10" stroke-dasharray="" clip-path="url(#rhXGgqODTSSV)"/><path fill="none" stroke="rgb(229,229,229)" paint-order="fill" d="M 76.5 282.5 L 470.5 282.5 M 76.5 218.5 L 470.5 218.5 M 76.5 153.5 L 470.5 153.5 M 76.5 89.5 L 470.5 89.5" stroke-opacity="1" stroke-linejoin="bevel" stroke-miterlimit="10" stroke-dasharray="" clip-path="url(#XTnnbHfLlBvz)"/><path fill="none" stroke="rgb(0,0,4)" paint-order="fill" d="M 76.5 282.6363525390625 L 92.26000213623047 282.6363525390625 L 108.0199966430664 280.0882568359375 L 123.77999877929688 279.55419921875 L 139.5399932861328 279.45123291015625 L 155.3000030517578 273.9882507324219 L 171.05999755859375 270.4556579589844 L 186.82000732421875 253.99916076660156 L 202.5800018310547 239.74974060058594 L 218.33999633789062 234.4894561767578 L 234.10000610351562 208.2909698486328 L 249.86000061035156 185.26153564453125 L 265.6199951171875 158.97618103027344 L 281.3800048828125 129.33197021484375 L 297.1400146484375 110.99014282226562 L 312.8999938964844 88.67172241210938 L 328.6600036621094 70.63231658935547 L 344.4200134277344 58.4194450378418 L 360.17999267578125 49.18900680541992 L 375.94000244140625 48.33964157104492 L 391.70001220703125 47.49992370605469 L 407.4599914550781 45.3636360168457 L 423.2200012207031 45.3636360168457 L 438.9800109863281 45.3636360168457 L 454.739990234375 45.3636360168457" stroke-opacity="1" stroke-linejoin="bevel" stroke-miterlimit="10" stroke-width="2.25" stroke-dasharray="" clip-path="url(#cPSmcqBebyvw)"/><path fill="none" stroke="rgb(87,15,109)" paint-order="fill" d="M 76.5 282.6363525390625 L 92.26000213623047 282.6363525390625 L 108.0199966430664 281.0212707519531 L 123.77999877929688 280.43572998046875 L 139.5399932861328 280.3649597167969 L 155.3000030517578 275.6130065917969 L 171.05999755859375 272.9329833984375 L 186.82000732421875 259.72918701171875 L 202.5800018310547 249.84884643554688 L 218.33999633789062 247.12379455566406 L 234.10000610351562 224.4707794189453 L 249.86000061035156 208.2845458984375 L 265.6199951171875 186.77688598632812 L 281.3800048828125 159.78050231933594 L 297.1400146484375 141.0139923095703 L 312.8999938964844 121.68122863769531 L 328.6600036621094 109.8930435180664 L 344.4200134277344 98.96708679199219 L 360.17999267578125 90.92061614990234 L 375.94000244140625 90.5602798461914 L 391.70001220703125 90.17742156982422 L 407.4599914550781 88.46903228759766 L 423.2200012207031 88.46903228759766 L 438.9800109863281 88.46903228759766 L 454.739990234375 88.46903228759766" stroke-opacity="1" stroke-linejoin="bevel" stroke-miterlimit="10" stroke-width="2.25" stroke-dasharray="" clip-path="url(#QQPnsTmmpnwr)"/><path fill="none" stroke="rgb(187,55,84)" paint-order="fill" d="M 76.5 282.6363525390625 L 92.26000213623047 282.6363525390625 L 108.0199966430664 281.1435241699219 L 123.77999877929688 280.947265625 L 139.5399932861328 280.89581298828125 L 155.3000030517578 276.2564697265625 L 171.05999755859375 273.6632995605469 L 186.82000732421875 262.37701416015625 L 202.5800018310547 253.38465881347656 L 218.33999633789062 251.01351928710938 L 234.10000610351562 228.97178649902344 L 249.86000061035156 214.2333221435547 L 265.6199951171875 192.66453552246094 L 281.3800048828125 164.76731872558594 L 297.1400146484375 145.6308135986328 L 312.8999938964844 127.20855712890625 L 328.6600036621094 115.41071319580078 L 344.4200134277344 104.46223449707031 L 360.17999267578125 96.48011016845703 L 375.94000244140625 96.12299346923828 L 391.70001220703125 95.72083282470703 L 407.4599914550781 93.98992156982422 L 423.2200012207031 93.98992156982422 L 438.9800109863281 93.98992156982422 L 454.739990234375 93.98992156982422" stroke-opacity="1" stroke-linejoin="bevel" stroke-miterlimit="10" stroke-width="2.25" stroke-dasharray="" clip-path="url(#CGTqBPHJzFrl)"/><path fill="none" stroke="rgb(249,140,9)" paint-order="fill" d="M 76.5 282.6363525390625 L 92.26000213623047 282.6363525390625 L 108.0199966430664 281.1564025878906 L 123.77999877929688 281.037353515625 L 139.5399932861328 281.00518798828125 L 155.3000030517578 276.27899169921875 L 171.05999755859375 274.0558166503906 L 186.82000732421875 262.9078674316406 L 202.5800018310547 254.0184783935547 L 218.33999633789062 251.6666259765625 L 234.10000610351562 230.4967803955078 L 249.86000061035156 216.099365234375 L 265.6199951171875 195.34133911132812 L 281.3800048828125 166.48858642578125 L 297.1400146484375 148.29153442382812 L 312.8999938964844 130.40655517578125 L 328.6600036621094 118.93687438964844 L 344.4200134277344 108.09456634521484 L 360.17999267578125 99.85184478759766 L 375.94000244140625 99.49794006347656 L 391.70001220703125 99.09577941894531 L 407.4599914550781 97.3359146118164 L 423.2200012207031 97.3359146118164 L 438.9800109863281 97.3359146118164 L 454.739990234375 97.3359146118164" stroke-opacity="1" stroke-linejoin="bevel" stroke-miterlimit="10" stroke-width="2.25" stroke-dasharray="" clip-path="url(#qseshBkTcDsU)"/><path fill="none" stroke="rgb(255,0,0)" paint-order="fill" d="M 76.5 282.6363525390625 L 92.26000213623047 282.6363525390625 L 108.0199966430664 280.19122314453125 L 123.77999877929688 278.7756042480469 L 139.5399932861328 277.1991271972656 L 155.3000030517578 270.828857421875 L 171.05999755859375 262.88214111328125 L 186.82000732421875 249.62686157226562 L 202.5800018310547 233.05775451660156 L 218.33999633789062 223.40585327148438 L 234.10000610351562 201.2708282470703 L 249.86000061035156 184.8625946044922 L 265.6199951171875 165.88050842285156 L 281.3800048828125 149.47227478027344 L 297.1400146484375 136.79611206054688 L 312.8999938964844 121.70697021484375 L 328.6600036621094 107.84040069580078 L 344.4200134277344 98.96065521240234 L 360.17999267578125 92.30084228515625 L 375.94000244140625 91.91476440429688 L 391.70001220703125 91.39999389648438 L 407.4599914550781 89.59830474853516 L 423.2200012207031 89.59830474853516 L 438.9800109863281 89.59830474853516 L 454.739990234375 89.59830474853516" stroke-opacity="1" stroke-linejoin="bevel" stroke-miterlimit="10" stroke-width="2.5" stroke-dasharray="6" clip-path="url(#yqMAEdyXBOJc)"/><path fill="none" stroke="rgb(255,165,0)" paint-order="fill" d="M 76.5 282.6363525390625 L 92.26000213623047 282.6363525390625 L 108.0199966430664 281.9607238769531 L 123.77999877929688 281.8963928222656 L 139.5399932861328 281.86419677734375 L 155.3000030517578 280.1268615722656 L 171.05999755859375 279.2582092285156 L 186.82000732421875 272.63055419921875 L 202.5800018310547 267.93328857421875 L 218.33999633789062 265.6811828613281 L 234.10000610351562 256.02928161621094 L 249.86000061035156 248.85470581054688 L 265.6199951171875 235.4385528564453 L 281.3800048828125 218.2581787109375 L 297.1400146484375 203.81248474121094 L 312.8999938964844 193.9353790283203 L 328.6600036621094 185.1521453857422 L 344.4200134277344 176.46543884277344 L 360.17999267578125 169.9986572265625 L 375.94000244140625 169.61257934570312 L 391.70001220703125 169.09780883789062 L 407.4599914550781 167.3604736328125 L 423.2200012207031 167.3604736328125 L 438.9800109863281 167.3604736328125 L 454.739990234375 167.3604736328125" stroke-opacity="1" stroke-linejoin="bevel" stroke-miterlimit="10" stroke-width="2.5" stroke-dasharray="2,4,6,4" clip-path="url(#WNqLxOcFonEP)"/><path fill="none" stroke="rgb(0,0,0)" paint-order="fill" d="M 76.5 294.5 L 470.5 294.5" stroke-opacity="1" stroke-linejoin="bevel" stroke-miterlimit="10" stroke-dasharray=""/><path fill="none" stroke="rgb(0,0,0)" paint-order="fill" d="M 76.5 300.5 L 76.5 292.5 M 155.5 300.5 L 155.5 292.5 M 234.5 300.5 L 234.5 292.5 M 312.5 300.5 L 312.5 292.5 M 391.5 300.5 L 391.5 292.5 M 470.5 300.5 L 470.5 292.5" stroke-opacity="1" stroke-linejoin="bevel" stroke-miterlimit="10" stroke-dasharray=""/><path fill="none" stroke="rgb(0,0,0)" paint-order="fill" d="M 76.5 298.5 L 76.5 294.5 M 92.5 298.5 L 92.5 294.5 M 108.5 298.5 L 108.5 294.5 M 123.5 298.5 L 123.5 294.5 M 139.5 298.5 L 139.5 294.5 M 155.5 298.5 L 155.5 294.5 M 171.5 298.5 L 171.5 294.5 M 186.5 298.5 L 186.5 294.5 M 202.5 298.5 L 202.5 294.5 M 218.5 298.5 L 218.5 294.5 M 234.5 298.5 L 234.5 294.5 M 249.5 298.5 L 249.5 294.5 M 265.5 298.5 L 265.5 294.5 M 281.5 298.5 L 281.5 294.5 M 297.5 298.5 L 297.5 294.5 M 312.5 298.5 L 312.5 294.5 M 328.5 298.5 L 328.5 294.5 M 344.5 298.5 L 344.5 294.5 M 360.5 298.5 L 360.5 294.5 M 375.5 298.5 L 375.5 294.5 M 391.5 298.5 L 391.5 294.5 M 407.5 298.5 L 407.5 294.5 M 423.5 298.5 L 423.5 294.5 M 438.5 298.5 L 438.5 294.5 M 454.5 298.5 L 454.5 294.5 M 470.5 298.5 L 470.5 294.5" stroke-opacity="1" stroke-linejoin="bevel" stroke-miterlimit="10" stroke-dasharray=""/><text fill="rgb(68,68,68)" stroke="none" font-family="helvetica" font-size="18px" font-style="normal" font-weight="normal" text-decoration="normal" x="70.99462890625" y="317.9111328125" text-anchor="start" dominant-baseline="alphabetic" transform="matrix(1, 0, 0, 1, 0.5, 0.5)" fill-opacity="1">0</text><text fill="rgb(68,68,68)" stroke="none" font-family="helvetica" font-size="18px" font-style="normal" font-weight="normal" text-decoration="normal" x="142.2887725830078" y="317.9111328125" text-anchor="start" dominant-baseline="alphabetic" transform="matrix(1, 0, 0, 1, 0.5, 0.5)" fill-opacity="1">0.2</text><text fill="rgb(68,68,68)" stroke="none" font-family="helvetica" font-size="18px" font-style="normal" font-weight="normal" text-decoration="normal" x="221.08877563476562" y="317.9111328125" text-anchor="start" dominant-baseline="alphabetic" transform="matrix(1, 0, 0, 1, 0.5, 0.5)" fill-opacity="1">0.4</text><text fill="rgb(68,68,68)" stroke="none" font-family="helvetica" font-size="18px" font-style="normal" font-weight="normal" text-decoration="normal" x="299.8887634277344" y="317.9111328125" text-anchor="start" dominant-baseline="alphabetic" transform="matrix(1, 0, 0, 1, 0.5, 0.5)" fill-opacity="1">0.6</text><text fill="rgb(68,68,68)" stroke="none" font-family="helvetica" font-size="18px" font-style="normal" font-weight="normal" text-decoration="normal" x="378.68878173828125" y="317.9111328125" text-anchor="start" dominant-baseline="alphabetic" transform="matrix(1, 0, 0, 1, 0.5, 0.5)" fill-opacity="1">0.8</text><text fill="rgb(68,68,68)" stroke="none" font-family="helvetica" font-size="18px" font-style="normal" font-weight="normal" text-decoration="normal" x="464.99462890625" y="317.9111328125" text-anchor="start" dominant-baseline="alphabetic" transform="matrix(1, 0, 0, 1, 0.5, 0.5)" fill-opacity="1">1</text><text fill="rgb(68,68,68)" stroke="none" font-family="helvetica" font-size="18px" font-style="italic" font-weight="normal" text-decoration="normal" x="253.330078125" y="342.9111328125" text-anchor="start" dominant-baseline="alphabetic" transform="matrix(1, 0, 0, 1, 0.5, 0.5)" fill-opacity="1">Time</text><path fill="none" stroke="rgb(0,0,0)" paint-order="fill" d="M 76.5 294.5 L 76.5 33.5" stroke-opacity="1" stroke-linejoin="bevel" stroke-miterlimit="10" stroke-dasharray=""/><path fill="none" stroke="rgb(0,0,0)" paint-order="fill" d="M 70.5 282.5 L 78.5 282.5 M 70.5 218.5 L 78.5 218.5 M 70.5 153.5 L 78.5 153.5 M 70.5 89.5 L 78.5 89.5" stroke-opacity="1" stroke-linejoin="bevel" stroke-miterlimit="10" stroke-dasharray=""/><path fill="none" stroke="rgb(0,0,0)" paint-order="fill" d="M 72.5 282.5 L 76.5 282.5 M 72.5 269.5 L 76.5 269.5 M 72.5 256.5 L 76.5 256.5 M 72.5 244.5 L 76.5 244.5 M 72.5 231.5 L 76.5 231.5 M 72.5 218.5 L 76.5 218.5 M 72.5 205.5 L 76.5 205.5 M 72.5 192.5 L 76.5 192.5 M 72.5 179.5 L 76.5 179.5 M 72.5 166.5 L 76.5 166.5 M 72.5 153.5 L 76.5 153.5 M 72.5 141.5 L 76.5 141.5 M 72.5 128.5 L 76.5 128.5 M 72.5 115.5 L 76.5 115.5 M 72.5 102.5 L 76.5 102.5 M 72.5 89.5 L 76.5 89.5 M 72.5 76.5 L 76.5 76.5 M 72.5 63.5 L 76.5 63.5 M 72.5 50.5 L 76.5 50.5 M 72.5 38.5 L 76.5 38.5" stroke-opacity="1" stroke-linejoin="bevel" stroke-miterlimit="10" stroke-dasharray=""/><text fill="rgb(68,68,68)" stroke="none" font-family="helvetica" font-size="16px" font-style="normal" font-weight="normal" text-decoration="normal" x="28.9609375" y="287.8746337890625" text-anchor="start" dominant-baseline="alphabetic" transform="matrix(0.6967067093471654, -0.7173560908995228, 0.7173560908995228, 0.6967067093471654, -182.1781670656373, 132.6982086828295)" fill-opacity="1">0e+0</text><text fill="rgb(68,68,68)" stroke="none" font-family="helvetica" font-size="16px" font-style="normal" font-weight="normal" text-decoration="normal" x="28.9609375" y="223.52862548828125" text-anchor="start" dominant-baseline="alphabetic" transform="matrix(0.6967067093471654, -0.7173560908995228, 0.7173560908995228, 0.6967067093471654, -136.0191660860006, 113.18249608491092)" fill-opacity="1">2e+3</text><text fill="rgb(68,68,68)" stroke="none" font-family="helvetica" font-size="16px" font-style="normal" font-weight="normal" text-decoration="normal" x="28.9609375" y="159.18260192871094" text-anchor="start" dominant-baseline="alphabetic" transform="matrix(0.6967067093471654, -0.7173560908995228, 0.7173560908995228, 0.6967067093471654, -89.86015416037864, 93.66677885910401)" fill-opacity="1">4e+3</text><text fill="rgb(68,68,68)" stroke="none" font-family="helvetica" font-size="16px" font-style="normal" font-weight="normal" text-decoration="normal" x="28.9609375" y="94.83658599853516" text-anchor="start" dominant-baseline="alphabetic" transform="matrix(0.6967067093471654, -0.7173560908995228, 0.7173560908995228, 0.6967067093471654, -43.70114770774933, 74.15106394724128)" fill-opacity="1">6e+3</text><text fill="rgb(68,68,68)" stroke="none" font-family="helvetica" font-size="18px" font-style="italic" font-weight="normal" text-decoration="normal" x="-116.90930974804589" y="159.5" text-anchor="start" dominant-baseline="alphabetic" transform="matrix(6.123233995736766e-17, -1, 1, 6.123233995736766e-17, -139.34143865429587, 187.6585613457041)" fill-opacity="1">Cum. number of column operations</text><path fill="rgb(255,255,255)" stroke="rgb(0,0,0)" paint-order="fill" d="M 86.5 43.5 L 204.76171875 43.5 L 204.76171875 171.5 L 86.5 171.5 L 86.5 43.5" fill-opacity="0.9490196078431372" clip-path="url(#FUbykMaiZIwn)" stroke-opacity="0.5019607843137255" stroke-linejoin="bevel" stroke-miterlimit="10" stroke-dasharray=""/><g clip-path="url(#FUbykMaiZIwn)"><text fill="rgb(68,68,68)" stroke="none" font-family="helvetica" font-size="13px" font-style="normal" font-weight="normal" text-decoration="normal" x="115" y="74.5" text-anchor="start" dominant-baseline="central" transform="matrix(1, 0, 0, 1, 0.5, 0.5)" fill-opacity="1">(0, random)</text></g><path fill="none" stroke="rgb(0,0,4)" paint-order="fill" d="M 90.5 72.5 L 110.5 72.5" stroke-opacity="1" stroke-linejoin="bevel" stroke-miterlimit="10" stroke-width="2.25" stroke-dasharray="" clip-path="url(#FUbykMaiZIwn)"/><g clip-path="url(#FUbykMaiZIwn)"><text fill="rgb(68,68,68)" stroke="none" font-family="helvetica" font-size="13px" font-style="normal" font-weight="normal" text-decoration="normal" x="115" y="91.5" text-anchor="start" dominant-baseline="central" transform="matrix(1, 0, 0, 1, 0.5, 0.5)" fill-opacity="1">(0.33, random)</text></g><path fill="none" stroke="rgb(87,15,109)" paint-order="fill" d="M 90.5 89.5 L 110.5 89.5" stroke-opacity="1" stroke-linejoin="bevel" stroke-miterlimit="10" stroke-width="2.25" stroke-dasharray="" clip-path="url(#FUbykMaiZIwn)"/><g clip-path="url(#FUbykMaiZIwn)"><text fill="rgb(68,68,68)" stroke="none" font-family="helvetica" font-size="13px" font-style="normal" font-weight="normal" text-decoration="normal" x="115" y="108.5" text-anchor="start" dominant-baseline="central" transform="matrix(1, 0, 0, 1, 0.5, 0.5)" fill-opacity="1">(0.66, random)</text></g><path fill="none" stroke="rgb(187,55,84)" paint-order="fill" d="M 90.5 106.5 L 110.5 106.5" stroke-opacity="1" stroke-linejoin="bevel" stroke-miterlimit="10" stroke-width="2.25" stroke-dasharray="" clip-path="url(#FUbykMaiZIwn)"/><g clip-path="url(#FUbykMaiZIwn)"><text fill="rgb(68,68,68)" stroke="none" font-family="helvetica" font-size="13px" font-style="normal" font-weight="normal" text-decoration="normal" x="115" y="125.5" text-anchor="start" dominant-baseline="central" transform="matrix(1, 0, 0, 1, 0.5, 0.5)" fill-opacity="1">(1.0, random)</text></g><path fill="none" stroke="rgb(249,140,9)" paint-order="fill" d="M 90.5 123.5 L 110.5 123.5" stroke-opacity="1" stroke-linejoin="bevel" stroke-miterlimit="10" stroke-width="2.25" stroke-dasharray="" clip-path="url(#FUbykMaiZIwn)"/><g clip-path="url(#FUbykMaiZIwn)"><text fill="rgb(68,68,68)" stroke="none" font-family="helvetica" font-size="13px" font-style="normal" font-weight="normal" text-decoration="normal" x="115" y="142.5" text-anchor="start" dominant-baseline="central" transform="matrix(1, 0, 0, 1, 0.5, 0.5)" fill-opacity="1">(0, naive)</text></g><path fill="none" stroke="rgb(255,0,0)" paint-order="fill" d="M 90.5 140.5 L 110.5 140.5" stroke-opacity="1" stroke-linejoin="bevel" stroke-miterlimit="10" stroke-width="2.5" stroke-dasharray="6" clip-path="url(#FUbykMaiZIwn)"/><g clip-path="url(#FUbykMaiZIwn)"><text fill="rgb(68,68,68)" stroke="none" font-family="helvetica" font-size="13px" font-style="normal" font-weight="normal" text-decoration="normal" x="115" y="159.5" text-anchor="start" dominant-baseline="central" transform="matrix(1, 0, 0, 1, 0.5, 0.5)" fill-opacity="1">(1, greedy)</text></g><path fill="none" stroke="rgb(255,165,0)" paint-order="fill" d="M 90.5 157.5 L 110.5 157.5" stroke-opacity="1" stroke-linejoin="bevel" stroke-miterlimit="10" stroke-width="2.5" stroke-dasharray="2,4,6,4" clip-path="url(#FUbykMaiZIwn)"/><g clip-path="url(#FUbykMaiZIwn)"><text fill="rgb(68,68,68)" stroke="none" font-family="helvetica" font-size="13px" font-style="italic" font-weight="normal" text-decoration="normal" x="4" y="-1" text-anchor="start" dominant-baseline="text-after-edge" transform="matrix(1, 0, 0, 1, 86.5, 63.5)" fill-opacity="1">Schedule strategy</text></g><path fill="rgb(0,0,4)" stroke="none" paint-order="stroke" d="M 76.5 282.6363525390625 L 76.5 282.6363525390625 L 92.26000213623047 282.6363525390625 L 108.0199966430664 281.3172607421875 L 123.77999877929688 280.8990173339844 L 139.5399932861328 280.802490234375 L 155.3000030517578 276.7808837890625 L 171.05999755859375 272.6949157714844 L 186.82000732421875 258.0561828613281 L 202.5800018310547 245.315673828125 L 218.33999633789062 241.1331787109375 L 234.10000610351562 214.42958068847656 L 249.86000061035156 194.70753479003906 L 265.6199951171875 166.68484497070312 L 281.3800048828125 140.592529296875 L 297.1400146484375 122.51129913330078 L 312.8999938964844 95.96855926513672 L 328.6600036621094 82.03765106201172 L 344.4200134277344 71.2275161743164 L 360.17999267578125 61.993865966796875 L 375.94000244140625 61.67213439941406 L 391.70001220703125 61.28606033325195 L 407.4599914550781 58.64787292480469 L 423.2200012207031 58.64787292480469 L 438.9800109863281 58.64787292480469 L 454.739990234375 58.64787292480469 L 454.739990234375 32.36252403259277 L 438.9800109863281 32.36252403259277 L 423.2200012207031 32.36252403259277 L 407.4599914550781 32.36252403259277 L 391.70001220703125 34.22855758666992 L 375.94000244140625 35.70851516723633 L 360.17999267578125 36.06241989135742 L 344.4200134277344 44.17001724243164 L 328.6600036621094 54.17582321166992 L 312.8999938964844 77.5977783203125 L 297.1400146484375 98.76761627197266 L 281.3800048828125 117.07405853271484 L 265.6199951171875 147.8957977294922 L 249.86000061035156 177.0123748779297 L 234.10000610351562 202.7507781982422 L 218.33999633789062 228.4891815185547 L 202.5800018310547 234.18380737304688 L 186.82000732421875 249.62686157226562 L 171.05999755859375 268.38372802734375 L 155.3000030517578 271.6975402832031 L 139.5399932861328 278.2608337402344 L 123.77999877929688 278.35736083984375 L 108.0199966430664 278.6790771484375 L 92.26000213623047 282.6363525390625 L 76.5 282.6363525390625 Z" fill-opacity="0.10196078431372549" clip-path="url(#QQrnIGleAoRL)"/><path fill="none" stroke="rgb(204,204,204)" paint-order="fill" d="M 76.5 282.6363525390625 L 76.5 282.6363525390625 L 92.26000213623047 282.6363525390625 L 108.0199966430664 281.3172607421875 L 123.77999877929688 280.8990173339844 L 139.5399932861328 280.802490234375 L 155.3000030517578 276.7808837890625 L 171.05999755859375 272.6949157714844 L 186.82000732421875 258.0561828613281 L 202.5800018310547 245.315673828125 L 218.33999633789062 241.1331787109375 L 234.10000610351562 214.42958068847656 L 249.86000061035156 194.70753479003906 L 265.6199951171875 166.68484497070312 L 281.3800048828125 140.592529296875 L 297.1400146484375 122.51129913330078 L 312.8999938964844 95.96855926513672 L 328.6600036621094 82.03765106201172 L 344.4200134277344 71.2275161743164 L 360.17999267578125 61.993865966796875 L 375.94000244140625 61.67213439941406 L 391.70001220703125 61.28606033325195 L 407.4599914550781 58.64787292480469 L 423.2200012207031 58.64787292480469 L 438.9800109863281 58.64787292480469 L 454.739990234375 58.64787292480469" stroke-opacity="0.30196078431372547" stroke-linejoin="bevel" stroke-miterlimit="10" stroke-dasharray="" clip-path="url(#QQrnIGleAoRL)"/><path fill="none" stroke="rgb(204,204,204)" paint-order="fill" d="M 76.5 282.6363525390625 L 76.5 282.6363525390625 L 92.26000213623047 282.6363525390625 L 108.0199966430664 278.6790771484375 L 123.77999877929688 278.35736083984375 L 139.5399932861328 278.2608337402344 L 155.3000030517578 271.6975402832031 L 171.05999755859375 268.38372802734375 L 186.82000732421875 249.62686157226562 L 202.5800018310547 234.18380737304688 L 218.33999633789062 228.4891815185547 L 234.10000610351562 202.7507781982422 L 249.86000061035156 177.0123748779297 L 265.6199951171875 147.8957977294922 L 281.3800048828125 117.07405853271484 L 297.1400146484375 98.76761627197266 L 312.8999938964844 77.5977783203125 L 328.6600036621094 54.17582321166992 L 344.4200134277344 44.17001724243164 L 360.17999267578125 36.06241989135742 L 375.94000244140625 35.70851516723633 L 391.70001220703125 34.22855758666992 L 407.4599914550781 32.36252403259277 L 423.2200012207031 32.36252403259277 L 438.9800109863281 32.36252403259277 L 454.739990234375 32.36252403259277" stroke-opacity="0.30196078431372547" stroke-linejoin="bevel" stroke-miterlimit="10" stroke-dasharray="" clip-path="url(#QQrnIGleAoRL)"/><path fill="rgb(87,15,109)" stroke="none" paint-order="stroke" d="M 76.5 282.6363525390625 L 76.5 282.6363525390625 L 92.26000213623047 282.6363525390625 L 108.0199966430664 281.7355041503906 L 123.77999877929688 281.6711730957031 L 139.5399932861328 281.6390075683594 L 155.3000030517578 277.874755859375 L 171.05999755859375 275.0435485839844 L 186.82000732421875 263.68646240234375 L 202.5800018310547 253.61630249023438 L 218.33999633789062 250.3990020751953 L 234.10000610351562 230.90216064453125 L 249.86000061035156 213.6574249267578 L 265.6199951171875 191.84413146972656 L 281.3800048828125 167.10308837890625 L 297.1400146484375 148.05667114257812 L 312.8999938964844 131.16583251953125 L 328.6600036621094 119.64789581298828 L 344.4200134277344 108.70907592773438 L 360.17999267578125 100.31192016601562 L 375.94000244140625 99.95801544189453 L 391.70001220703125 99.5075912475586 L 407.4599914550781 97.73807525634766 L 423.2200012207031 97.73807525634766 L 438.9800109863281 97.73807525634766 L 454.739990234375 97.73807525634766 L 454.739990234375 84.41844940185547 L 438.9800109863281 84.41844940185547 L 423.2200012207031 84.41844940185547 L 407.4599914550781 84.41844940185547 L 391.70001220703125 85.86624145507812 L 375.94000244140625 86.25231170654297 L 360.17999267578125 86.60621643066406 L 344.4200134277344 94.81033325195312 L 328.6600036621094 105.94219207763672 L 312.8999938964844 116.65580749511719 L 297.1400146484375 136.4422149658203 L 281.3800048828125 156.80772399902344 L 265.6199951171875 183.54348754882812 L 249.86000061035156 202.04296875 L 234.10000610351562 220.92852783203125 L 218.33999633789062 241.4549102783203 L 202.5800018310547 244.22178649902344 L 186.82000732421875 254.19541931152344 L 171.05999755859375 270.9575500488281 L 155.3000030517578 273.7566223144531 L 139.5399932861328 279.7729797363281 L 123.77999877929688 279.8051452636719 L 108.0199966430664 280.4164123535156 L 92.26000213623047 282.6363525390625 L 76.5 282.6363525390625 Z" fill-opacity="0.10196078431372549" clip-path="url(#SnktpyCfDdWT)"/><path fill="none" stroke="rgb(204,204,204)" paint-order="fill" d="M 76.5 282.6363525390625 L 76.5 282.6363525390625 L 92.26000213623047 282.6363525390625 L 108.0199966430664 281.7355041503906 L 123.77999877929688 281.6711730957031 L 139.5399932861328 281.6390075683594 L 155.3000030517578 277.874755859375 L 171.05999755859375 275.0435485839844 L 186.82000732421875 263.68646240234375 L 202.5800018310547 253.61630249023438 L 218.33999633789062 250.3990020751953 L 234.10000610351562 230.90216064453125 L 249.86000061035156 213.6574249267578 L 265.6199951171875 191.84413146972656 L 281.3800048828125 167.10308837890625 L 297.1400146484375 148.05667114257812 L 312.8999938964844 131.16583251953125 L 328.6600036621094 119.64789581298828 L 344.4200134277344 108.70907592773438 L 360.17999267578125 100.31192016601562 L 375.94000244140625 99.95801544189453 L 391.70001220703125 99.5075912475586 L 407.4599914550781 97.73807525634766 L 423.2200012207031 97.73807525634766 L 438.9800109863281 97.73807525634766 L 454.739990234375 97.73807525634766" stroke-opacity="0.30196078431372547" stroke-linejoin="bevel" stroke-miterlimit="10" stroke-dasharray="" clip-path="url(#SnktpyCfDdWT)"/><path fill="none" stroke="rgb(204,204,204)" paint-order="fill" d="M 76.5 282.6363525390625 L 76.5 282.6363525390625 L 92.26000213623047 282.6363525390625 L 108.0199966430664 280.4164123535156 L 123.77999877929688 279.8051452636719 L 139.5399932861328 279.7729797363281 L 155.3000030517578 273.7566223144531 L 171.05999755859375 270.9575500488281 L 186.82000732421875 254.19541931152344 L 202.5800018310547 244.22178649902344 L 218.33999633789062 241.4549102783203 L 234.10000610351562 220.92852783203125 L 249.86000061035156 202.04296875 L 265.6199951171875 183.54348754882812 L 281.3800048828125 156.80772399902344 L 297.1400146484375 136.4422149658203 L 312.8999938964844 116.65580749511719 L 328.6600036621094 105.94219207763672 L 344.4200134277344 94.81033325195312 L 360.17999267578125 86.60621643066406 L 375.94000244140625 86.25231170654297 L 391.70001220703125 85.86624145507812 L 407.4599914550781 84.41844940185547 L 423.2200012207031 84.41844940185547 L 438.9800109863281 84.41844940185547 L 454.739990234375 84.41844940185547" stroke-opacity="0.30196078431372547" stroke-linejoin="bevel" stroke-miterlimit="10" stroke-dasharray="" clip-path="url(#SnktpyCfDdWT)"/><path fill="rgb(187,55,84)" stroke="none" paint-order="stroke" d="M 76.5 282.6363525390625 L 76.5 282.6363525390625 L 92.26000213623047 282.6363525390625 L 108.0199966430664 281.8963928222656 L 123.77999877929688 281.83203125 L 139.5399932861328 281.7355041503906 L 155.3000030517578 278.2286682128906 L 171.05999755859375 276.4591369628906 L 186.82000732421875 267.0002746582031 L 202.5800018310547 258.8283386230469 L 218.33999633789062 256.9623107910156 L 234.10000610351562 238.52716064453125 L 249.86000061035156 222.63369750976562 L 265.6199951171875 203.49075317382812 L 281.3800048828125 179.29666137695312 L 297.1400146484375 158.06246948242188 L 312.8999938964844 139.49864196777344 L 328.6600036621094 128.270263671875 L 344.4200134277344 117.71751403808594 L 360.17999267578125 110.5107650756836 L 375.94000244140625 110.1568603515625 L 391.70001220703125 109.77078247070312 L 407.4599914550781 107.90474700927734 L 423.2200012207031 107.90474700927734 L 438.9800109863281 107.90474700927734 L 454.739990234375 107.90474700927734 L 454.739990234375 86.027099609375 L 438.9800109863281 86.027099609375 L 423.2200012207031 86.027099609375 L 407.4599914550781 86.027099609375 L 391.70001220703125 87.66792297363281 L 375.94000244140625 88.08617401123047 L 360.17999267578125 88.44007873535156 L 344.4200134277344 96.64419555664062 L 328.6600036621094 107.32563781738281 L 312.8999938964844 118.00707244873047 L 297.1400146484375 136.24917602539062 L 281.3800048828125 155.77818298339844 L 265.6199951171875 186.05299377441406 L 249.86000061035156 209.66798400878906 L 234.10000610351562 224.78929138183594 L 218.33999633789062 246.9564971923828 L 202.5800018310547 249.7877197265625 L 186.82000732421875 258.506591796875 L 171.05999755859375 271.4723205566406 L 155.3000030517578 274.17486572265625 L 139.5399932861328 280.6094665527344 L 123.77999877929688 280.6416320800781 L 108.0199966430664 280.7381591796875 L 92.26000213623047 282.6363525390625 L 76.5 282.6363525390625 Z" fill-opacity="0.10196078431372549" clip-path="url(#mTcEIsVEyziv)"/><path fill="none" stroke="rgb(204,204,204)" paint-order="fill" d="M 76.5 282.6363525390625 L 76.5 282.6363525390625 L 92.26000213623047 282.6363525390625 L 108.0199966430664 281.8963928222656 L 123.77999877929688 281.83203125 L 139.5399932861328 281.7355041503906 L 155.3000030517578 278.2286682128906 L 171.05999755859375 276.4591369628906 L 186.82000732421875 267.0002746582031 L 202.5800018310547 258.8283386230469 L 218.33999633789062 256.9623107910156 L 234.10000610351562 238.52716064453125 L 249.86000061035156 222.63369750976562 L 265.6199951171875 203.49075317382812 L 281.3800048828125 179.29666137695312 L 297.1400146484375 158.06246948242188 L 312.8999938964844 139.49864196777344 L 328.6600036621094 128.270263671875 L 344.4200134277344 117.71751403808594 L 360.17999267578125 110.5107650756836 L 375.94000244140625 110.1568603515625 L 391.70001220703125 109.77078247070312 L 407.4599914550781 107.90474700927734 L 423.2200012207031 107.90474700927734 L 438.9800109863281 107.90474700927734 L 454.739990234375 107.90474700927734" stroke-opacity="0.30196078431372547" stroke-linejoin="bevel" stroke-miterlimit="10" stroke-dasharray="" clip-path="url(#mTcEIsVEyziv)"/><path fill="none" stroke="rgb(204,204,204)" paint-order="fill" d="M 76.5 282.6363525390625 L 76.5 282.6363525390625 L 92.26000213623047 282.6363525390625 L 108.0199966430664 280.7381591796875 L 123.77999877929688 280.6416320800781 L 139.5399932861328 280.6094665527344 L 155.3000030517578 274.17486572265625 L 171.05999755859375 271.4723205566406 L 186.82000732421875 258.506591796875 L 202.5800018310547 249.7877197265625 L 218.33999633789062 246.9564971923828 L 234.10000610351562 224.78929138183594 L 249.86000061035156 209.66798400878906 L 265.6199951171875 186.05299377441406 L 281.3800048828125 155.77818298339844 L 297.1400146484375 136.24917602539062 L 312.8999938964844 118.00707244873047 L 328.6600036621094 107.32563781738281 L 344.4200134277344 96.64419555664062 L 360.17999267578125 88.44007873535156 L 375.94000244140625 88.08617401123047 L 391.70001220703125 87.66792297363281 L 407.4599914550781 86.027099609375 L 423.2200012207031 86.027099609375 L 438.9800109863281 86.027099609375 L 454.739990234375 86.027099609375" stroke-opacity="0.30196078431372547" stroke-linejoin="bevel" stroke-miterlimit="10" stroke-dasharray="" clip-path="url(#mTcEIsVEyziv)"/><path fill="rgb(249,140,9)" stroke="none" paint-order="stroke" d="M 76.5 282.6363525390625 L 76.5 282.6363525390625 L 92.26000213623047 282.6363525390625 L 108.0199966430664 281.6068420410156 L 123.77999877929688 281.54248046875 L 139.5399932861328 281.51031494140625 L 155.3000030517578 278.0356140136719 L 171.05999755859375 276.4591369628906 L 186.82000732421875 264.8768615722656 L 202.5800018310547 257.2518615722656 L 218.33999633789062 254.9675750732422 L 234.10000610351562 235.6637725830078 L 249.86000061035156 222.27980041503906 L 265.6199951171875 200.9490966796875 L 281.3800048828125 172.9585723876953 L 297.1400146484375 155.16690063476562 L 312.8999938964844 138.5656280517578 L 328.6600036621094 125.50338745117188 L 344.4200134277344 115.36888885498047 L 360.17999267578125 107.61518859863281 L 375.94000244140625 107.26129150390625 L 391.70001220703125 106.90738677978516 L 407.4599914550781 105.04135131835938 L 423.2200012207031 105.04135131835938 L 438.9800109863281 105.04135131835938 L 454.739990234375 105.04135131835938 L 454.739990234375 84.41844940185547 L 438.9800109863281 84.41844940185547 L 423.2200012207031 84.41844940185547 L 407.4599914550781 84.41844940185547 L 391.70001220703125 86.12361907958984 L 375.94000244140625 86.5418701171875 L 360.17999267578125 86.8957748413086 L 344.4200134277344 95.711181640625 L 328.6600036621094 108.45169067382812 L 312.8999938964844 120.00180053710938 L 297.1400146484375 136.47438049316406 L 281.3800048828125 154.61996459960938 L 265.6199951171875 188.4337921142578 L 249.86000061035156 210.6009979248047 L 234.10000610351562 225.20753479003906 L 218.33999633789062 247.56777954101562 L 202.5800018310547 250.0772705078125 L 186.82000732421875 259.3752746582031 L 171.05999755859375 272.308837890625 L 155.3000030517578 275.0113525390625 L 139.5399932861328 280.3199157714844 L 123.77999877929688 280.3520812988281 L 108.0199966430664 280.4164123535156 L 92.26000213623047 282.6363525390625 L 76.5 282.6363525390625 Z" fill-opacity="0.10196078431372549" clip-path="url(#EPplawGvXGBP)"/><path fill="none" stroke="rgb(204,204,204)" paint-order="fill" d="M 76.5 282.6363525390625 L 76.5 282.6363525390625 L 92.26000213623047 282.6363525390625 L 108.0199966430664 281.6068420410156 L 123.77999877929688 281.54248046875 L 139.5399932861328 281.51031494140625 L 155.3000030517578 278.0356140136719 L 171.05999755859375 276.4591369628906 L 186.82000732421875 264.8768615722656 L 202.5800018310547 257.2518615722656 L 218.33999633789062 254.9675750732422 L 234.10000610351562 235.6637725830078 L 249.86000061035156 222.27980041503906 L 265.6199951171875 200.9490966796875 L 281.3800048828125 172.9585723876953 L 297.1400146484375 155.16690063476562 L 312.8999938964844 138.5656280517578 L 328.6600036621094 125.50338745117188 L 344.4200134277344 115.36888885498047 L 360.17999267578125 107.61518859863281 L 375.94000244140625 107.26129150390625 L 391.70001220703125 106.90738677978516 L 407.4599914550781 105.04135131835938 L 423.2200012207031 105.04135131835938 L 438.9800109863281 105.04135131835938 L 454.739990234375 105.04135131835938" stroke-opacity="0.30196078431372547" stroke-linejoin="bevel" stroke-miterlimit="10" stroke-dasharray="" clip-path="url(#EPplawGvXGBP)"/><path fill="none" stroke="rgb(204,204,204)" paint-order="fill" d="M 76.5 282.6363525390625 L 76.5 282.6363525390625 L 92.26000213623047 282.6363525390625 L 108.0199966430664 280.4164123535156 L 123.77999877929688 280.3520812988281 L 139.5399932861328 280.3199157714844 L 155.3000030517578 275.0113525390625 L 171.05999755859375 272.308837890625 L 186.82000732421875 259.3752746582031 L 202.5800018310547 250.0772705078125 L 218.33999633789062 247.56777954101562 L 234.10000610351562 225.20753479003906 L 249.86000061035156 210.6009979248047 L 265.6199951171875 188.4337921142578 L 281.3800048828125 154.61996459960938 L 297.1400146484375 136.47438049316406 L 312.8999938964844 120.00180053710938 L 328.6600036621094 108.45169067382812 L 344.4200134277344 95.711181640625 L 360.17999267578125 86.8957748413086 L 375.94000244140625 86.5418701171875 L 391.70001220703125 86.12361907958984 L 407.4599914550781 84.41844940185547 L 423.2200012207031 84.41844940185547 L 438.9800109863281 84.41844940185547 L 454.739990234375 84.41844940185547" stroke-opacity="0.30196078431372547" stroke-linejoin="bevel" stroke-miterlimit="10" stroke-dasharray="" clip-path="url(#EPplawGvXGBP)"/><text fill="rgb(68,68,68)" stroke="none" font-family="helvetica" font-size="18px" font-style="normal" font-weight="bold" text-decoration="normal" x="76" y="24" text-anchor="start" dominant-baseline="alphabetic" transform="matrix(1, 0, 0, 1, 0.5, 0.5)" fill-opacity="1">Schedule strategies 9x9 grayscale image data</text></svg>